<svg xmlns="http://www.w3.org/2000/svg" viewBox="0 0 24 24"><g fill="#000"><path d="m5 13 5-7 1-4 3 4 1 7 4 1-4 7-8-1-2-7z" fill="#A2CAE9"></path><path d="M18.17 11.44c-.2.3-.94 1.18-1.63 1.24-.17.02-.45 0-.84-.39-.58-.58-.48-1.31-.24-2.66.27-1.48.6-3.32-.64-5.19-2.23-3.35-4.57-3.45-4.83-3.45-.64 0-1.13.6-.97 1.24.24.96.57 3.75-.74 5.05-2 2-4.29 3.22-4.29 6.71 0 4.41 3.59 8 8 8s8-3.59 8-8v-2c0-1-1.28-1.38-1.83-.56ZM12 20c-3.31 0-6-2.69-6-6 0-2.49 1.65-3.24 3.71-5.29 1.45-1.45 1.62-3.66 1.52-5.2.55.36 1.24 1 1.94 2.05.79 1.19.57 2.42.33 3.72-.26 1.44-.56 3.08.79 4.43 1.1 1.1 2.43 1.26 3.7.56-.14 3.18-2.78 5.73-6 5.73Z"></path></g></svg>